<svg id="visual" viewBox="0 0 1920 1080" width="1920" height="1080" xmlns="http://www.w3.org/2000/svg" xmlns:xlink="http://www.w3.org/1999/xlink" version="1.1"><rect x="0" y="0" width="1920" height="1080" fill="#000000"></rect><path d="M0 54L26.7 52.2C53.3 50.3 106.7 46.7 160 44.3C213.3 42 266.7 41 320 43C373.3 45 426.7 50 480 52.3C533.3 54.7 586.7 54.3 640 54C693.3 53.7 746.7 53.3 800 53.8C853.3 54.3 906.7 55.7 960 58.3C1013.3 61 1066.7 65 1120 63.3C1173.3 61.7 1226.7 54.3 1280 53C1333.3 51.7 1386.7 56.3 1440 56C1493.3 55.7 1546.7 50.3 1600 47C1653.3 43.7 1706.7 42.3 1760 45.5C1813.3 48.7 1866.7 56.3 1893.3 60.2L1920 64L1920 0L1893.3 0C1866.7 0 1813.3 0 1760 0C1706.7 0 1653.3 0 1600 0C1546.7 0 1493.3 0 1440 0C1386.7 0 1333.3 0 1280 0C1226.7 0 1173.3 0 1120 0C1066.7 0 1013.3 0 960 0C906.7 0 853.3 0 800 0C746.7 0 693.3 0 640 0C586.7 0 533.3 0 480 0C426.7 0 373.3 0 320 0C266.7 0 213.3 0 160 0C106.7 0 53.3 0 26.7 0L0 0Z" fill="#ADCD04" stroke-linecap="round" stroke-linejoin="miter"></path></svg>