<svg id="visual" viewBox="0 0 1920 1080" width="1920" height="1080" xmlns="http://www.w3.org/2000/svg" xmlns:xlink="http://www.w3.org/1999/xlink" version="1.1"><rect x="0" y="0" width="1920" height="1080" fill="#000000"></rect><path d="M0 1024L26.7 1025.8C53.3 1027.7 106.7 1031.3 160 1033.7C213.3 1036 266.7 1037 320 1035C373.3 1033 426.7 1028 480 1025.7C533.3 1023.3 586.7 1023.7 640 1024C693.3 1024.3 746.7 1024.7 800 1024.2C853.3 1023.7 906.7 1022.3 960 1019.7C1013.3 1017 1066.7 1013 1120 1014.7C1173.3 1016.3 1226.7 1023.7 1280 1025C1333.3 1026.3 1386.7 1021.7 1440 1022C1493.3 1022.3 1546.7 1027.7 1600 1031C1653.3 1034.3 1706.7 1035.7 1760 1032.5C1813.3 1029.3 1866.7 1021.7 1893.3 1017.8L1920 1014L1920 1081L1893.3 1081C1866.7 1081 1813.3 1081 1760 1081C1706.7 1081 1653.3 1081 1600 1081C1546.7 1081 1493.3 1081 1440 1081C1386.7 1081 1333.3 1081 1280 1081C1226.7 1081 1173.3 1081 1120 1081C1066.7 1081 1013.3 1081 960 1081C906.7 1081 853.3 1081 800 1081C746.7 1081 693.3 1081 640 1081C586.7 1081 533.3 1081 480 1081C426.7 1081 373.3 1081 320 1081C266.7 1081 213.3 1081 160 1081C106.7 1081 53.3 1081 26.7 1081L0 1081Z" fill="#ADCD04" stroke-linecap="round" stroke-linejoin="miter"></path></svg>